# xmcd CD database file
#
# Track frame offsets:
#	150
#	8743
#	26402
#	44874
#	58732
#	78347
#	88349
#	114600
#	132996
#	147102
#	160693
#	180536
#	201431
#	217548
#
# Disc length: 3149 seconds
#
# Revision: 0
# Processed by: cddbd v1.5.2PL0 Copyright (c) Steve Scherf et al.
# Submitted via: CDex 1.51
#
DISCID=be0c4b0e
DTITLE=Dalindèo - Soundtrack for the Sound Eye
DYEAR=2010
DGENRE=Jazz
TTITLE0=Lights, Camera, Action
TTITLE1=Vintage Voyage
TTITLE2=Willpower
TTITLE3=Another Devil
TTITLE4=Belleville-Pantin
TTITLE5=Hermann
TTITLE6=Words Unspoken
TTITLE7=New Creation
TTITLE8=Take Cover
TTITLE9=Flow On
TTITLE10=MR.J.L.
TTITLE11=Two Down, One to Go
TTITLE12=Kantava voima (second movement)
TTITLE13=Menina No Parachu-to
EXTD=YEAR: 2010
EXTT0=
EXTT1=
EXTT2=
EXTT3=
EXTT4=
EXTT5=
EXTT6=
EXTT7=
EXTT8=
EXTT9=
EXTT10=
EXTT11=
EXTT12=
EXTT13=
PLAYORDER=
